<svg id="visual" viewBox="0 0 1500 100" width="1500" height="100" xmlns="http://www.w3.org/2000/svg" xmlns:xlink="http://www.w3.org/1999/xlink" version="1.1"><path d="M0 22L12.5 21.7C25 21.3 50 20.7 75 27C100 33.3 125 46.7 150 57.2C175 67.7 200 75.3 225 79.7C250 84 275 85 300 79.5C325 74 350 62 375 49.2C400 36.3 425 22.7 450 28.7C475 34.7 500 60.3 525 65.8C550 71.3 575 56.7 600 48.5C625 40.3 650 38.7 675 41.5C700 44.3 725 51.7 750 54.5C775 57.3 800 55.7 825 48.5C850 41.3 875 28.7 900 25.3C925 22 950 28 975 28.3C1000 28.7 1025 23.3 1050 31.5C1075 39.7 1100 61.3 1125 70C1150 78.7 1175 74.3 1200 74.3C1225 74.3 1250 78.7 1275 72.7C1300 66.7 1325 50.3 1350 47.5C1375 44.7 1400 55.3 1425 63.5C1450 71.7 1475 77.3 1487.5 80.2L1500 83L1500 101L1487.5 101C1475 101 1450 101 1425 101C1400 101 1375 101 1350 101C1325 101 1300 101 1275 101C1250 101 1225 101 1200 101C1175 101 1150 101 1125 101C1100 101 1075 101 1050 101C1025 101 1000 101 975 101C950 101 925 101 900 101C875 101 850 101 825 101C800 101 775 101 750 101C725 101 700 101 675 101C650 101 625 101 600 101C575 101 550 101 525 101C500 101 475 101 450 101C425 101 400 101 375 101C350 101 325 101 300 101C275 101 250 101 225 101C200 101 175 101 150 101C125 101 100 101 75 101C50 101 25 101 12.5 101L0 101Z" fill="#F2F2F2" stroke-linecap="round" stroke-linejoin="miter"></path></svg>